<svg xmlns="http://www.w3.org/2000/svg" viewBox="0 0 64 64">
  <!-- Background -->
  <rect width="64" height="64" rx="14" fill="#059669"/>

  <!-- Plate shadow -->
  <ellipse cx="32" cy="38" rx="20" ry="3" fill="#047857" opacity="0.4"/>

  <!-- Plate -->
  <circle cx="32" cy="34" r="20" fill="white"/>
  <circle cx="32" cy="34" r="16" fill="#ecfdf5"/>

  <!-- Food: meat/protein (orange) -->
  <ellipse cx="29" cy="33" rx="7" ry="5" fill="#f97316"/>
  <ellipse cx="29" cy="31.5" rx="5.5" ry="3.5" fill="#fb923c"/>

  <!-- Food: greens -->
  <ellipse cx="37" cy="34" rx="4.5" ry="3.5" fill="#22c55e"/>
  <ellipse cx="37.5" cy="33" rx="3" ry="2.2" fill="#4ade80"/>

  <!-- Fork (left of plate) -->
  <rect x="9" y="13" width="2.5" height="14" rx="1.25" fill="white"/>
  <rect x="7.5" y="13" width="2" height="8" rx="1" fill="white"/>
  <rect x="11" y="13" width="2" height="8" rx="1" fill="white"/>
  <rect x="9" y="19" width="2.5" height="4" rx="1" fill="white"/>

  <!-- Knife (right of plate) -->
  <rect x="52.5" y="13" width="2.5" height="14" rx="1.25" fill="white"/>
  <path d="M52.5 13 Q56 17 55 22 L52.5 22 Z" fill="white"/>
</svg>
